<svg id="svg" version="1.1" xmlns="http://www.w3.org/2000/svg" xmlns:xlink="http://www.w3.org/1999/xlink" width="400" height="363.3305298570227" viewBox="0, 0, 400,363.3305298570227"><g id="svgg"><path id="path0" d="M245.643 292.844 C 242.623 293.790,239.977 296.498,239.180 299.458 C 238.961 300.272,238.872 309.675,238.932 325.887 L 239.024 351.051 239.784 352.472 C 240.814 354.401,242.684 356.205,244.545 357.066 L 246.089 357.780 317.410 357.780 L 388.730 357.780 390.244 356.986 C 392.308 355.905,393.833 354.402,394.900 352.397 L 395.795 350.715 395.795 325.147 L 395.795 299.579 394.900 297.897 C 393.833 295.893,392.308 294.389,390.244 293.308 L 388.730 292.515 317.914 292.451 C 259.111 292.398,246.851 292.465,245.643 292.844 M262.742 320.606 L 262.742 338.099 273.688 338.099 L 284.633 338.099 284.537 341.379 L 284.441 344.659 269.722 344.747 L 255.004 344.835 255.004 323.973 L 255.004 303.112 258.873 303.112 L 262.742 303.112 262.742 320.606 M298.320 323.886 L 298.234 344.659 294.281 344.754 L 290.328 344.849 290.328 323.980 L 290.328 303.112 294.368 303.112 L 298.407 303.112 298.320 323.886 M318.411 318.790 C 322.107 327.405,325.222 334.509,325.335 334.579 C 325.447 334.648,328.627 327.596,332.401 318.908 L 339.263 303.112 343.243 303.112 C 345.431 303.112,347.149 303.230,347.059 303.375 C 346.970 303.520,343.240 312.036,338.771 322.299 C 334.302 332.562,330.259 341.829,329.785 342.893 L 328.924 344.828 325.142 344.828 L 321.361 344.828 313.017 325.736 C 308.428 315.235,304.324 305.849,303.897 304.878 L 303.120 303.112 307.405 303.120 L 311.690 303.128 318.411 318.790 M381.762 306.392 L 381.665 309.672 370.479 309.761 L 359.294 309.849 359.294 315.059 L 359.294 320.269 369.218 320.269 L 379.142 320.269 379.142 323.633 L 379.142 326.997 369.218 326.997 L 359.294 326.997 359.294 332.548 L 359.294 338.099 370.900 338.099 L 382.506 338.099 382.506 341.467 L 382.506 344.834 366.947 344.747 L 351.388 344.659 351.301 323.886 L 351.214 303.112 366.536 303.112 L 381.858 303.112 381.762 306.392 " stroke="none" fill="#d3140c" fill-rule="evenodd"></path><path id="path1" d="M147.855 5.589 C 118.826 7.449,92.528 16.388,68.716 32.490 C 63.804 35.811,48.163 47.709,48.125 48.153 C 48.116 48.270,51.779 49.071,56.266 49.933 C 93.048 56.996,121.155 69.917,147.519 91.882 C 153.934 97.227,164.765 108.355,167.384 112.292 C 167.420 112.345,168.869 111.762,170.604 110.997 C 208.350 94.354,251.765 92.197,291.930 104.971 C 296.639 106.468,300.577 107.609,300.681 107.505 C 301.372 106.814,288.569 82.449,283.435 74.685 C 253.295 29.100,200.537 2.212,147.855 5.589 M172.582 20.171 C 211.112 25.278,244.188 44.662,267.225 75.635 C 270.271 79.731,274.300 85.778,274.110 85.969 C 274.036 86.042,271.430 85.733,268.319 85.281 C 236.066 80.594,203.602 83.620,176.096 93.875 L 171.705 95.513 166.843 90.734 C 143.880 68.162,112.503 50.066,81.498 41.512 L 80.406 41.211 83.685 39.259 C 102.591 28.005,123.309 21.398,146.005 19.386 C 150.655 18.974,167.248 19.464,172.582 20.171 M35.372 71.405 C 31.613 76.465,29.439 79.677,29.639 79.877 C 29.714 79.952,32.000 80.257,34.719 80.555 C 85.132 86.080,127.431 115.166,151.232 160.673 C 153.164 164.366,154.256 166.123,154.522 165.963 C 154.741 165.831,156.632 164.461,158.724 162.917 C 200.937 131.769,254.222 124.243,301.346 142.773 L 303.448 143.600 303.448 142.648 C 303.448 141.708,302.120 133.607,301.324 129.689 L 300.914 127.670 297.555 126.555 C 253.607 111.956,201.659 118.278,162.230 143.025 L 159.111 144.983 158.036 143.223 C 133.741 103.457,92.645 75.750,46.423 67.974 C 38.065 66.568,39.234 66.205,35.372 71.405 M15.509 101.872 C 14.626 103.522,10.288 117.240,9.105 122.127 C -12.395 210.891,49.042 298.381,139.613 307.978 C 142.296 308.263,145.048 308.555,145.730 308.628 L 146.968 308.761 148.528 304.507 C 163.521 263.609,160.294 217.985,139.739 180.234 C 115.530 135.773,72.210 106.955,21.793 101.771 C 15.659 101.140,15.902 101.136,15.509 101.872 M44.792 120.093 C 50.260 121.670,56.726 123.982,61.428 126.041 L 64.844 127.537 63.741 131.977 C 63.134 134.419,61.618 140.627,60.372 145.773 C 59.126 150.919,57.999 155.006,57.868 154.856 C 57.611 154.563,35.955 120.295,34.915 118.536 L 34.288 117.477 37.245 118.123 C 38.871 118.478,42.267 119.365,44.792 120.093 M34.641 143.918 C 40.982 153.964,46.115 162.226,46.046 162.279 C 45.891 162.397,18.733 155.767,18.526 155.560 C 17.669 154.703,21.216 127.363,22.442 125.370 C 22.695 124.960,22.165 124.154,34.641 143.918 M82.951 137.783 C 86.649 140.265,90.645 143.248,95.025 146.796 L 96.021 147.602 90.315 172.203 C 87.177 185.734,84.533 196.798,84.441 196.791 C 84.348 196.784,82.163 193.416,79.585 189.306 C 77.007 185.196,73.409 179.474,71.589 176.590 L 68.281 171.347 72.501 154.053 C 77.867 132.063,77.277 134.154,78.003 134.542 C 78.332 134.719,80.559 136.177,82.951 137.783 M240.529 156.206 C 240.431 156.311,238.993 156.425,237.333 156.459 C 226.562 156.684,207.231 161.168,192.935 166.758 C 185.151 169.802,167.710 178.859,165.271 181.124 C 164.948 181.424,165.399 182.649,167.331 186.717 C 181.956 217.512,184.821 251.706,175.479 283.959 C 173.822 289.678,172.193 294.183,168.613 302.944 C 166.601 307.866,166.358 308.677,166.862 308.765 C 168.341 309.021,184.650 306.295,191.590 304.631 C 253.625 289.757,299.020 237.783,305.959 173.690 C 306.681 167.013,306.752 167.465,304.878 166.769 C 290.911 161.582,278.692 158.524,266.106 157.063 C 260.726 156.439,240.931 155.776,240.529 156.206 M111.058 162.723 C 114.703 166.969,118.904 172.559,121.704 176.888 L 123.713 179.995 123.103 182.596 C 119.849 196.471,110.291 236.124,110.094 236.569 C 109.902 237.001,108.819 235.522,105.660 230.513 C 103.361 226.868,99.989 221.524,98.166 218.637 L 94.851 213.389 101.151 186.257 C 104.617 171.335,107.568 159.125,107.711 159.125 C 107.853 159.125,109.360 160.744,111.058 162.723 M43.999 176.012 L 56.879 179.150 64.749 191.589 C 69.077 198.431,72.577 204.070,72.526 204.121 C 72.475 204.173,61.364 201.828,47.835 198.911 L 23.238 193.608 22.238 189.403 C 20.710 182.975,19.195 173.871,19.181 171.029 L 19.176 169.981 25.147 171.427 C 28.431 172.223,36.915 174.286,43.999 176.012 M255.158 170.984 C 248.373 202.410,224.680 234.229,196.329 249.987 L 194.341 251.093 194.559 248.744 C 194.835 245.780,194.277 233.911,193.613 228.595 C 193.336 226.375,193.108 224.463,193.106 224.345 C 193.105 224.228,194.428 223.172,196.047 221.998 C 212.195 210.289,225.781 191.257,230.962 173.087 C 231.278 171.976,231.607 170.992,231.692 170.900 C 232.076 170.481,240.401 169.973,247.546 169.934 L 255.394 169.891 255.158 170.984 M275.526 172.460 C 279.977 173.327,284.302 174.411,288.887 175.810 C 292.154 176.806,291.987 176.220,290.818 182.568 C 281.195 234.859,242.718 276.755,191.812 290.370 C 187.319 291.572,187.539 291.663,188.374 288.949 C 189.874 284.083,193.103 269.354,193.103 267.384 C 193.103 267.239,194.958 266.191,197.225 265.056 C 233.502 246.883,259.583 213.100,268.933 172.171 C 269.171 171.127,268.548 171.100,275.526 172.460 M215.426 175.666 C 210.858 186.908,203.067 197.882,193.852 206.053 C 191.884 207.798,190.237 209.188,190.191 209.143 C 190.146 209.097,189.431 206.719,188.602 203.857 C 187.773 200.995,186.100 196.010,184.885 192.778 C 183.669 189.546,182.675 186.861,182.675 186.809 C 182.675 186.609,191.515 182.301,194.819 180.891 C 200.879 178.307,210.828 174.918,216.209 173.606 C 216.242 173.598,215.890 174.525,215.426 175.666 M135.016 202.873 C 143.927 225.976,146.422 250.718,142.285 274.965 C 141.337 280.523,140.259 285.059,139.965 284.723 C 139.396 284.070,120.273 253.549,120.316 253.361 C 121.377 248.634,133.375 198.864,133.438 198.927 C 133.488 198.977,134.198 200.753,135.016 202.873 M55.845 214.674 C 70.555 217.844,82.809 220.642,83.075 220.892 C 83.645 221.427,98.851 245.365,98.722 245.525 C 98.455 245.853,41.825 233.681,41.316 233.186 C 38.714 230.654,27.532 208.924,28.825 208.913 C 28.976 208.911,41.135 211.504,55.845 214.674 M86.967 257.209 L 109.175 261.870 118.715 276.956 C 123.963 285.253,128.171 292.126,128.068 292.229 C 127.965 292.333,125.706 291.873,123.049 291.208 C 98.341 285.025,76.590 272.714,58.923 254.911 L 54.431 250.385 59.596 251.466 C 62.436 252.061,74.754 254.645,86.967 257.209 M255.004 323.973 L 255.004 344.835 269.722 344.747 L 284.441 344.659 284.537 341.379 L 284.633 338.099 273.688 338.099 L 262.742 338.099 262.742 320.606 L 262.742 303.112 258.873 303.112 L 255.004 303.112 255.004 323.973 M290.328 323.980 L 290.328 344.849 294.281 344.754 L 298.234 344.659 298.320 323.886 L 298.407 303.112 294.368 303.112 L 290.328 303.112 290.328 323.980 M303.897 304.878 C 304.324 305.849,308.428 315.235,313.017 325.736 L 321.361 344.828 325.142 344.828 L 328.924 344.828 329.785 342.893 C 330.259 341.829,334.302 332.562,338.771 322.299 C 343.240 312.036,346.970 303.520,347.059 303.375 C 347.149 303.230,345.431 303.112,343.243 303.112 L 339.263 303.112 332.401 318.908 C 328.627 327.596,325.447 334.648,325.335 334.579 C 325.222 334.509,322.107 327.405,318.411 318.790 L 311.690 303.128 307.405 303.120 L 303.120 303.112 303.897 304.878 M351.301 323.886 L 351.388 344.659 366.947 344.747 L 382.506 344.834 382.506 341.467 L 382.506 338.099 370.900 338.099 L 359.294 338.099 359.294 332.548 L 359.294 326.997 369.218 326.997 L 379.142 326.997 379.142 323.633 L 379.142 320.269 369.218 320.269 L 359.294 320.269 359.294 315.059 L 359.294 309.849 370.479 309.761 L 381.665 309.672 381.762 306.392 L 381.858 303.112 366.536 303.112 L 351.214 303.112 351.301 323.886 " stroke="none" fill="#fcfbfb" fill-rule="evenodd"></path></g></svg>