<svg id="svg" version="1.1" xmlns="http://www.w3.org/2000/svg" xmlns:xlink="http://www.w3.org/1999/xlink" width="400" height="363.3305298570227" viewBox="0, 0, 400,363.3305298570227"><g id="svgg"><path id="path0" d="M254.668 323.970 L 254.668 344.828 269.302 344.828 L 283.936 344.828 283.936 341.463 L 283.936 338.099 273.171 338.099 L 262.405 338.099 262.405 320.606 L 262.405 303.112 258.537 303.112 L 254.668 303.112 254.668 323.970 M290.328 323.970 L 290.328 344.828 294.029 344.828 L 297.729 344.828 297.729 323.970 L 297.729 303.112 294.029 303.112 L 290.328 303.112 290.328 323.970 M303.109 303.354 C 303.104 303.722,320.652 343.892,321.042 344.407 C 321.262 344.697,322.474 344.828,324.955 344.828 L 328.550 344.828 337.530 324.215 C 342.469 312.878,346.510 303.487,346.510 303.346 C 346.510 303.205,344.812 303.133,342.736 303.185 L 338.963 303.280 332.062 319.155 C 328.266 327.885,325.095 334.963,325.015 334.883 C 324.935 334.803,321.816 327.659,318.085 319.009 L 311.300 303.280 307.206 303.186 C 304.954 303.134,303.110 303.209,303.109 303.354 M351.220 323.970 L 351.220 344.828 366.695 344.828 L 382.170 344.828 382.170 341.463 L 382.170 338.099 370.387 338.099 L 358.604 338.099 358.697 332.464 L 358.789 326.829 368.797 326.740 L 378.806 326.651 378.806 323.460 L 378.806 320.269 368.705 320.269 L 358.604 320.269 358.696 314.971 L 358.789 309.672 370.143 309.583 L 381.497 309.495 381.497 306.303 L 381.497 303.112 366.358 303.112 L 351.220 303.112 351.220 323.970 " stroke="none" fill="#fbfafa" fill-rule="evenodd"></path><path id="path1" d="M245.347 292.834 C 242.426 293.747,239.610 296.611,238.847 299.446 C 238.623 300.276,238.535 309.522,238.596 325.887 L 238.688 351.051 239.442 352.462 C 240.427 354.306,242.258 356.058,244.196 357.013 L 245.753 357.780 316.400 357.868 C 397.051 357.968,389.276 358.270,392.653 354.910 C 395.773 351.807,395.627 353.267,395.627 325.147 C 395.627 297.025,395.772 298.485,392.653 295.388 C 389.276 292.035,397.010 292.343,316.950 292.369 C 259.944 292.387,246.496 292.475,245.347 292.834 M262.405 320.606 L 262.405 338.099 273.339 338.099 L 284.272 338.099 284.272 341.463 L 284.272 344.828 269.470 344.828 L 254.668 344.828 254.668 323.970 L 254.668 303.112 258.537 303.112 L 262.405 303.112 262.405 320.606 M298.066 323.970 L 298.066 344.828 294.029 344.828 L 289.992 344.828 289.992 323.970 L 289.992 303.112 294.029 303.112 L 298.066 303.112 298.066 323.970 M317.729 317.830 C 321.215 325.925,324.310 333.029,324.607 333.617 L 325.147 334.686 332.010 318.899 L 338.873 303.112 342.860 303.112 C 345.052 303.112,346.843 303.150,346.839 303.196 C 346.835 303.242,342.773 312.590,337.812 323.970 L 328.792 344.659 324.842 344.659 L 320.892 344.659 311.835 323.970 C 306.854 312.590,302.778 303.242,302.777 303.196 C 302.776 303.150,304.714 303.112,307.083 303.112 L 311.391 303.112 317.729 317.830 M381.497 306.476 L 381.497 309.840 370.227 309.840 L 358.957 309.840 358.957 315.050 L 358.957 320.259 368.966 320.348 L 378.974 320.437 378.974 323.633 L 378.974 326.829 368.966 326.918 L 358.957 327.007 358.957 332.549 L 358.957 338.091 370.648 338.179 L 382.338 338.267 382.338 341.463 L 382.338 344.659 366.611 344.747 L 350.883 344.834 350.883 323.973 L 350.883 303.112 366.190 303.112 L 381.497 303.112 381.497 306.476 " stroke="none" fill="#d3140c" fill-rule="evenodd"></path><path id="path2" d="M290.150 323.970 C 290.150 335.534,290.192 340.265,290.244 334.483 C 290.295 328.701,290.295 319.239,290.244 313.457 C 290.192 307.675,290.150 312.405,290.150 323.970 M297.887 323.970 C 297.887 335.534,297.930 340.265,297.981 334.483 C 298.033 328.701,298.033 319.239,297.981 313.457 C 297.930 307.675,297.887 312.405,297.887 323.970 M351.041 323.970 C 351.041 335.534,351.084 340.265,351.135 334.483 C 351.187 328.701,351.187 319.239,351.135 313.457 C 351.084 307.675,351.041 312.405,351.041 323.970 M358.769 309.939 C 358.677 310.179,358.648 312.639,358.705 315.406 L 358.808 320.437 358.883 315.143 L 358.957 309.849 370.311 309.756 L 381.665 309.663 370.301 309.583 C 361.256 309.520,358.902 309.593,358.769 309.939 M378.874 323.544 L 378.806 326.651 368.797 326.740 L 358.789 326.829 358.776 332.465 L 358.764 338.100 358.869 332.549 L 358.973 326.997 368.900 326.997 C 376.863 326.997,378.861 326.909,378.999 326.549 C 379.094 326.302,379.120 324.826,379.057 323.269 L 378.943 320.437 378.874 323.544 M284.061 341.463 C 284.061 343.406,284.116 344.201,284.184 343.230 C 284.252 342.258,284.252 340.669,284.184 339.697 C 284.116 338.726,284.061 339.521,284.061 341.463 M382.291 341.463 C 382.291 343.221,382.348 343.940,382.417 343.061 C 382.486 342.183,382.486 340.744,382.417 339.865 C 382.348 338.987,382.291 339.706,382.291 341.463 " stroke="none" fill="#f48c8c" fill-rule="evenodd"></path><path id="path3" d="M147.519 5.614 C 120.570 7.003,93.619 15.937,70.311 31.206 C 64.355 35.107,47.472 47.924,47.827 48.274 C 47.889 48.334,51.928 49.161,56.802 50.111 C 93.013 57.165,121.381 70.262,147.014 91.760 C 154.609 98.129,165.387 109.170,167.053 112.287 C 167.080 112.337,169.357 111.408,172.113 110.223 C 209.389 94.189,252.348 92.366,292.125 105.130 C 296.537 106.545,300.234 107.616,300.341 107.509 C 300.904 106.946,289.534 84.792,284.880 77.385 C 255.221 30.174,202.766 2.766,147.519 5.614 M166.022 19.523 C 206.637 22.941,242.494 42.868,266.800 75.526 C 270.393 80.354,273.993 85.749,273.770 85.972 C 273.691 86.051,271.140 85.746,268.100 85.294 C 236.254 80.558,203.255 83.624,175.775 93.870 L 171.399 95.502 166.355 90.560 C 144.186 68.838,115.938 52.194,85.318 42.813 L 80.119 41.220 83.710 39.088 C 102.464 27.952,124.322 21.009,145.669 19.407 C 149.267 19.137,162.322 19.211,166.022 19.523 M35.051 71.405 C 31.332 76.378,29.097 79.672,29.303 79.877 C 29.377 79.952,31.664 80.257,34.383 80.555 C 85.075 86.110,127.102 115.133,151.207 161.229 C 152.900 164.466,153.939 166.112,154.193 165.960 C 154.408 165.833,156.476 164.344,158.789 162.653 C 201.143 131.686,253.047 124.370,300.673 142.655 L 303.112 143.591 303.112 142.790 C 303.112 141.561,302.169 135.497,301.336 131.371 L 300.589 127.670 297.315 126.571 C 254.402 112.157,203.418 117.988,163.955 141.824 L 158.750 144.968 158.023 143.720 C 135.388 104.872,92.358 75.775,45.983 67.957 C 37.785 66.575,38.934 66.213,35.051 71.405 M15.185 101.850 C 14.386 103.351,10.300 116.101,9.121 120.774 C -13.354 209.820,48.179 298.325,139.277 307.978 C 141.960 308.263,144.717 308.556,145.405 308.630 C 146.648 308.763,146.658 308.754,147.368 306.863 C 182.832 212.325,121.301 112.101,21.456 101.774 C 15.338 101.141,15.564 101.138,15.185 101.850 M44.455 120.093 C 49.924 121.670,56.390 123.982,61.093 126.042 L 64.511 127.539 63.742 130.632 C 63.319 132.334,61.805 138.544,60.377 144.433 C 58.949 150.321,57.673 155.014,57.542 154.861 C 57.324 154.607,34.697 118.744,34.201 117.867 C 33.921 117.372,38.366 118.337,44.455 120.093 M34.429 144.090 C 41.021 154.532,45.819 162.450,45.491 162.348 C 45.172 162.248,38.933 160.714,31.625 158.938 C 24.318 157.162,18.277 155.647,18.201 155.572 C 17.376 154.746,20.111 133.015,21.856 126.533 C 22.353 124.690,20.900 122.662,34.429 144.090 M81.197 136.827 C 86.849 140.475,95.537 147.131,95.548 147.823 C 95.563 148.790,84.272 196.739,84.060 196.608 C 83.926 196.526,80.248 190.807,75.886 183.900 L 67.955 171.342 72.340 153.375 C 77.449 132.443,76.982 134.159,77.484 134.454 C 77.702 134.582,79.373 135.650,81.197 136.827 M240.501 156.247 C 240.419 156.329,238.918 156.424,237.165 156.458 C 225.448 156.687,204.190 161.834,189.781 167.930 C 182.129 171.167,168.306 178.521,165.122 181.050 C 164.607 181.459,164.760 181.926,166.901 186.485 C 184.412 223.779,185.172 261.177,169.220 300.634 C 165.952 308.717,165.918 308.831,166.747 308.831 C 168.539 308.831,183.449 306.386,188.562 305.253 C 251.864 291.231,298.276 239.209,305.606 174.063 C 306.359 167.375,306.360 167.386,305.046 166.945 C 304.445 166.742,301.304 165.646,298.066 164.508 C 281.865 158.814,265.563 156.098,247.592 156.098 C 243.774 156.098,240.583 156.165,240.501 156.247 M110.290 162.178 C 113.477 165.839,118.801 172.906,121.373 176.892 L 123.395 180.024 122.985 181.770 C 119.155 198.091,109.842 236.727,109.698 236.895 C 109.591 237.019,106.136 231.782,102.020 225.257 L 94.536 213.394 100.834 186.257 C 104.505 170.437,107.276 159.166,107.477 159.231 C 107.666 159.293,108.932 160.619,110.290 162.178 M43.679 176.016 L 56.577 179.158 64.432 191.591 C 68.752 198.429,72.245 204.066,72.194 204.117 C 72.143 204.168,61.030 201.824,47.499 198.909 L 22.896 193.608 21.880 189.340 C 20.751 184.601,19.332 176.346,18.981 172.478 L 18.753 169.960 24.767 171.417 C 28.076 172.218,36.586 174.288,43.679 176.016 M254.825 170.984 C 248.130 202.437,222.676 236.345,195.184 250.436 L 194.068 251.008 194.288 248.717 C 194.558 245.917,193.954 233.706,193.277 228.242 C 193.004 226.042,192.891 224.151,193.026 224.038 C 193.161 223.926,194.558 222.874,196.131 221.700 C 212.353 209.589,225.019 191.839,230.461 173.591 C 230.875 172.204,231.280 170.992,231.362 170.900 C 231.729 170.481,240.062 169.973,247.209 169.934 L 255.058 169.891 254.825 170.984 M275.862 172.602 C 280.691 173.555,290.078 176.049,291.013 176.626 C 292.047 177.265,288.936 191.678,285.626 201.589 C 270.984 245.426,234.644 279.436,190.457 290.657 C 187.001 291.535,187.197 292.020,188.758 286.458 C 190.035 281.907,191.628 274.584,192.435 269.563 L 192.825 267.134 197.926 264.499 C 234.029 245.853,259.309 212.825,268.596 172.171 C 268.837 171.119,268.141 171.077,275.862 172.602 M215.085 175.694 C 210.399 187.322,201.103 200.014,191.542 207.837 L 189.813 209.252 189.073 206.476 C 188.050 202.640,185.367 194.635,183.715 190.489 C 182.958 188.589,182.338 186.963,182.338 186.875 C 182.338 186.622,190.650 182.526,194.483 180.891 C 200.542 178.307,210.492 174.918,215.872 173.606 C 215.905 173.598,215.551 174.537,215.085 175.694 M134.499 202.355 C 142.955 223.628,145.805 247.712,142.602 270.816 C 141.957 275.468,140.533 282.874,140.013 284.280 C 139.780 284.908,120.628 255.302,120.195 253.645 C 120.067 253.155,132.897 198.719,133.093 198.920 C 133.131 198.959,133.763 200.505,134.499 202.355 M55.999 214.773 C 70.794 217.980,82.947 220.738,83.006 220.900 C 83.065 221.062,86.572 226.644,90.799 233.305 C 95.026 239.966,98.314 245.448,98.107 245.486 C 97.899 245.524,85.013 242.875,69.470 239.599 L 41.211 233.642 39.529 231.096 C 36.090 225.890,29.616 213.370,28.452 209.672 C 28.132 208.655,25.764 208.217,55.999 214.773 M86.812 257.244 L 108.864 261.871 118.496 277.109 C 123.794 285.490,127.943 292.347,127.716 292.347 C 126.634 292.347,116.044 289.468,111.621 287.972 C 91.867 281.288,74.799 270.761,59.714 255.960 L 53.995 250.348 59.378 251.482 C 62.338 252.106,74.684 254.699,86.812 257.244 " stroke="none" fill="#1c1c1c" fill-rule="evenodd"></path></g></svg>