<svg id="svg" version="1.1" xmlns="http://www.w3.org/2000/svg" xmlns:xlink="http://www.w3.org/1999/xlink" width="400" height="125.83427071616047" viewBox="0, 0, 400,125.83427071616047"><g id="svgg"><path id="path0" d="M329.833 89.333 L 329.833 99.000 336.750 99.000 L 343.667 99.000 343.667 97.500 L 343.667 96.000 338.583 96.000 L 333.500 96.000 333.500 87.833 L 333.500 79.667 331.667 79.667 L 329.833 79.667 329.833 89.333 M346.500 89.333 L 346.500 99.000 348.250 99.000 L 350.000 99.000 350.000 89.333 L 350.000 79.667 348.250 79.667 L 346.500 79.667 346.500 89.333 M352.541 79.953 C 352.615 80.219,358.859 94.556,360.256 97.667 L 360.817 98.917 362.622 98.963 L 364.428 99.010 366.077 95.213 C 366.985 93.125,368.809 88.942,370.131 85.917 C 371.453 82.892,372.601 80.248,372.680 80.042 C 372.825 79.667,372.824 79.667,371.018 79.667 L 369.212 79.667 367.674 83.208 C 366.828 85.156,365.380 88.494,364.457 90.625 C 363.533 92.756,362.756 94.479,362.731 94.454 C 362.706 94.429,361.261 91.110,359.519 87.079 L 356.353 79.750 354.405 79.703 C 352.605 79.659,352.465 79.678,352.541 79.953 M374.833 89.333 L 374.833 99.000 382.167 99.000 L 389.500 99.000 389.500 97.500 L 389.500 96.000 384.000 96.000 L 378.500 96.000 378.500 93.333 L 378.500 90.667 383.167 90.667 L 387.833 90.667 387.833 89.167 L 387.833 87.667 383.167 87.667 L 378.500 87.667 378.500 85.167 L 378.500 82.667 383.750 82.667 L 389.000 82.667 389.000 81.167 L 389.000 79.667 381.917 79.667 L 374.833 79.667 374.833 89.333 " stroke="none" fill="#fbfbfb" fill-rule="evenodd"></path><path id="path1" d="M325.500 74.862 C 324.282 75.209,323.189 76.280,322.671 77.631 C 322.344 78.485,322.333 78.865,322.333 89.917 C 322.333 103.010,322.273 102.441,323.805 103.874 C 325.317 105.288,322.100 105.175,359.255 105.126 L 392.250 105.083 393.009 104.709 C 393.945 104.248,394.745 103.482,395.222 102.592 C 395.583 101.917,395.583 101.911,395.583 89.917 L 395.583 77.917 395.215 77.228 C 394.746 76.350,393.983 75.588,393.106 75.119 L 392.417 74.750 359.250 74.723 C 337.565 74.705,325.881 74.753,325.500 74.862 M333.500 87.833 L 333.500 96.000 338.583 96.000 L 343.667 96.000 343.667 97.500 L 343.667 99.000 336.750 99.000 L 329.833 99.000 329.833 89.333 L 329.833 79.667 331.667 79.667 L 333.500 79.667 333.500 87.833 M350.000 89.333 L 350.000 99.000 348.250 99.000 L 346.500 99.000 346.500 89.333 L 346.500 79.667 348.250 79.667 L 350.000 79.667 350.000 89.333 M359.519 87.079 C 361.261 91.110,362.706 94.429,362.731 94.454 C 362.756 94.479,363.533 92.756,364.457 90.625 C 365.380 88.494,366.828 85.156,367.674 83.208 L 369.212 79.667 371.018 79.667 C 372.824 79.667,372.825 79.667,372.680 80.042 C 372.601 80.248,371.453 82.892,370.131 85.917 C 368.809 88.942,366.985 93.125,366.077 95.213 L 364.428 99.010 362.622 98.963 L 360.817 98.917 360.256 97.667 C 358.859 94.556,352.615 80.219,352.541 79.953 C 352.465 79.678,352.605 79.659,354.405 79.703 L 356.353 79.750 359.519 87.079 M389.000 81.167 L 389.000 82.667 383.750 82.667 L 378.500 82.667 378.500 85.167 L 378.500 87.667 383.167 87.667 L 387.833 87.667 387.833 89.167 L 387.833 90.667 383.167 90.667 L 378.500 90.667 378.500 93.333 L 378.500 96.000 384.000 96.000 L 389.500 96.000 389.500 97.500 L 389.500 99.000 382.167 99.000 L 374.833 99.000 374.833 89.333 L 374.833 79.667 381.917 79.667 L 389.000 79.667 389.000 81.167 " stroke="none" fill="#b41c14" fill-rule="evenodd"></path><path id="path2" d="M57.917 5.778 C 43.598 6.959,34.510 10.713,21.879 20.663 C 20.233 21.960,20.094 21.818,23.667 22.489 C 37.366 25.059,47.777 29.894,58.322 38.583 C 60.444 40.331,64.120 44.103,65.189 45.630 L 65.447 45.998 67.015 45.317 C 80.833 39.315,97.460 38.456,111.750 43.007 C 115.561 44.221,115.833 44.305,115.833 44.265 C 115.833 44.073,111.518 35.582,110.909 34.575 C 109.203 31.753,106.486 27.834,105.591 26.902 C 105.495 26.802,105.004 26.224,104.500 25.616 C 101.700 22.243,92.701 14.500,91.580 14.500 C 91.542 14.500,91.002 14.173,90.380 13.774 C 81.998 8.392,68.005 4.945,57.917 5.778 M68.083 11.315 C 83.279 13.554,96.079 21.616,104.637 34.337 C 105.282 35.295,105.791 36.097,105.769 36.119 C 105.747 36.142,104.984 36.045,104.073 35.904 C 91.925 34.032,79.509 35.112,69.043 38.951 L 67.003 39.699 65.710 38.382 C 57.421 29.942,43.607 21.857,33.284 19.404 C 32.591 19.239,32.778 19.032,34.510 18.047 C 44.954 12.101,57.011 9.683,68.083 11.315 M250.870 20.912 C 246.922 22.145,247.218 27.830,251.274 28.672 C 253.750 29.186,255.874 27.849,256.350 25.475 C 256.965 22.413,253.992 19.937,250.870 20.912 M389.667 30.935 L 389.667 40.203 388.926 39.379 C 383.964 33.860,373.566 33.355,367.083 38.316 C 357.986 45.280,358.679 61.163,368.333 66.943 C 371.486 68.830,373.709 69.407,377.833 69.409 C 382.785 69.411,385.880 68.217,388.792 65.184 L 389.833 64.099 389.833 66.633 L 389.833 69.167 392.833 69.167 L 395.833 69.167 395.833 45.417 L 395.833 21.667 392.750 21.667 L 389.667 21.667 389.667 30.935 M149.012 24.708 C 148.879 25.048,148.561 25.760,147.541 28.000 C 147.353 28.412,146.471 30.363,145.581 32.333 C 144.692 34.304,143.791 36.292,143.580 36.750 C 143.368 37.208,142.808 38.446,142.333 39.500 C 141.859 40.554,141.298 41.792,141.087 42.250 C 140.876 42.708,140.010 44.621,139.163 46.500 C 138.316 48.379,137.333 50.543,136.978 51.308 C 136.624 52.074,136.333 52.722,136.333 52.750 C 136.333 52.778,136.043 53.426,135.688 54.192 C 135.334 54.957,134.350 57.121,133.503 59.000 C 132.656 60.879,131.756 62.867,131.503 63.417 C 130.152 66.358,129.000 68.951,129.000 69.052 C 129.000 69.115,130.488 69.167,132.307 69.167 L 135.613 69.167 135.826 68.708 C 135.944 68.456,136.509 67.162,137.083 65.833 C 137.656 64.504,138.333 62.967,138.587 62.417 C 138.841 61.867,139.369 60.667,139.762 59.750 L 140.475 58.083 152.362 58.041 L 164.250 57.999 164.568 58.791 C 164.743 59.227,165.098 60.033,165.357 60.583 C 165.617 61.133,166.565 63.271,167.464 65.333 L 169.099 69.083 172.557 69.128 C 175.821 69.171,176.007 69.157,175.861 68.878 C 175.777 68.716,174.640 66.221,173.336 63.333 C 172.031 60.446,170.791 57.708,170.580 57.250 C 170.368 56.792,169.806 55.554,169.330 54.500 C 168.854 53.446,168.291 52.208,168.080 51.750 C 167.868 51.292,167.306 50.054,166.830 49.000 C 166.354 47.946,165.791 46.708,165.580 46.250 C 165.368 45.792,164.806 44.554,164.330 43.500 C 163.854 42.446,163.291 41.208,163.080 40.750 C 162.868 40.292,162.306 39.054,161.830 38.000 C 161.354 36.946,160.791 35.708,160.580 35.250 C 160.368 34.792,159.806 33.554,159.330 32.500 C 158.854 31.446,158.291 30.208,158.080 29.750 C 157.148 27.729,155.959 25.082,155.823 24.724 L 155.675 24.333 152.417 24.333 C 149.192 24.333,149.157 24.337,149.012 24.708 M299.833 31.500 L 299.833 35.167 297.000 35.167 L 294.167 35.167 294.167 37.750 L 294.167 40.333 297.000 40.333 L 299.833 40.333 299.834 50.125 C 299.835 63.148,300.040 64.304,302.802 66.861 C 306.297 70.095,313.763 70.450,317.612 67.566 L 318.140 67.170 317.228 65.055 C 316.727 63.892,316.279 62.880,316.233 62.806 C 316.188 62.733,315.863 62.854,315.512 63.076 C 312.703 64.849,309.181 64.643,307.382 62.599 C 306.151 61.200,306.167 61.361,306.167 50.231 L 306.167 40.333 311.000 40.333 L 315.833 40.333 315.833 37.750 L 315.833 35.167 311.000 35.167 L 306.167 35.167 306.167 31.500 L 306.167 27.833 303.000 27.833 L 299.833 27.833 299.833 31.500 M16.428 29.570 C 15.083 31.239,13.427 33.649,13.544 33.766 C 13.583 33.805,14.320 33.906,15.182 33.990 C 24.499 34.900,34.146 38.517,41.956 44.031 C 43.154 44.876,45.666 46.825,46.000 47.169 C 46.046 47.216,46.714 47.816,47.484 48.502 C 50.298 51.009,54.134 55.548,56.355 59.000 C 57.622 60.970,58.289 62.134,59.572 64.625 C 60.521 66.465,60.339 66.437,62.226 65.031 C 63.983 63.722,65.964 62.333,66.074 62.333 C 66.116 62.333,66.472 62.118,66.867 61.856 C 69.334 60.212,74.287 57.898,77.955 56.675 C 90.164 52.604,102.615 52.783,115.211 57.211 L 116.839 57.783 116.751 57.266 C 116.703 56.982,116.550 56.038,116.412 55.167 C 115.805 51.346,116.229 51.741,111.406 50.498 C 95.150 46.310,78.271 48.704,64.190 57.196 C 63.128 57.836,62.236 58.291,62.208 58.207 C 62.048 57.728,58.638 52.807,57.389 51.252 C 47.811 39.336,32.673 30.780,18.055 29.020 L 16.976 28.890 16.428 29.570 M153.382 33.334 C 155.644 38.517,156.671 40.844,157.230 42.054 C 157.562 42.771,157.833 43.381,157.833 43.410 C 157.833 43.439,158.733 45.504,159.833 48.000 C 160.933 50.496,161.833 52.604,161.833 52.685 C 161.833 52.770,157.754 52.833,152.333 52.833 C 147.108 52.833,142.833 52.803,142.833 52.766 C 142.833 52.728,143.066 52.184,143.350 51.557 C 143.634 50.930,144.543 48.879,145.369 47.000 C 146.195 45.121,147.416 42.346,148.082 40.833 C 148.748 39.321,149.946 36.585,150.744 34.753 C 152.269 31.253,152.335 31.113,152.420 31.198 C 152.449 31.227,152.882 32.188,153.382 33.334 M197.083 35.005 C 193.317 35.402,190.133 37.020,187.958 39.640 L 187.500 40.192 187.500 37.679 L 187.500 35.167 184.583 35.167 L 181.667 35.167 181.667 52.167 L 181.667 69.167 184.742 69.167 L 187.817 69.167 187.880 59.042 C 187.955 47.261,187.955 47.258,189.786 44.463 C 193.303 39.092,202.688 39.115,205.417 44.501 C 206.563 46.762,206.567 46.804,206.628 58.542 L 206.683 69.167 209.758 69.167 L 212.833 69.167 212.833 60.012 C 212.833 48.896,212.963 47.671,214.408 45.089 C 217.726 39.159,227.605 38.848,230.473 44.583 C 231.589 46.815,231.561 46.478,231.624 58.375 L 231.680 69.167 234.765 69.167 L 237.850 69.167 237.789 57.458 C 237.720 43.940,237.728 44.010,235.795 40.750 C 231.194 32.992,216.638 32.942,211.256 40.667 C 211.082 40.917,210.935 41.005,210.889 40.887 C 209.425 37.100,203.033 34.377,197.083 35.005 M275.583 34.996 C 268.286 35.612,263.714 39.584,263.779 45.250 C 263.840 50.625,266.886 53.215,274.833 54.650 C 275.887 54.840,277.612 55.152,278.667 55.343 C 284.296 56.364,286.256 58.308,284.708 61.337 C 282.729 65.211,271.476 64.984,265.774 60.955 C 265.209 60.556,265.396 60.330,263.815 63.320 L 262.632 65.556 263.024 65.853 C 267.529 69.263,277.650 70.526,284.000 68.471 C 288.610 66.978,291.107 64.075,291.293 59.988 C 291.572 53.877,288.597 51.526,278.333 49.749 C 271.685 48.598,269.750 47.329,270.040 44.312 C 270.452 40.022,279.400 38.799,286.159 42.110 C 287.025 42.534,287.760 42.814,287.791 42.732 C 287.822 42.650,288.399 41.571,289.072 40.333 C 290.446 37.809,290.451 37.933,288.956 37.201 C 285.473 35.493,280.130 34.613,275.583 34.996 M335.333 34.998 C 331.307 35.333,327.213 36.715,324.564 38.633 L 323.712 39.250 324.408 40.500 C 324.791 41.188,325.353 42.200,325.658 42.750 C 325.962 43.300,326.241 43.803,326.278 43.868 C 326.315 43.933,326.721 43.701,327.182 43.353 C 331.448 40.123,339.125 39.340,342.917 41.748 C 344.886 42.998,345.860 44.881,346.084 47.873 L 346.203 49.462 339.893 49.545 C 330.613 49.666,327.967 50.317,325.167 53.163 C 322.659 55.712,322.079 60.259,323.807 63.833 C 326.998 70.436,340.122 71.607,345.625 65.780 L 346.500 64.853 346.500 67.010 L 346.500 69.167 349.417 69.167 L 352.333 69.167 352.333 58.042 C 352.332 46.224,352.279 45.249,351.510 42.953 C 349.549 37.097,343.839 34.290,335.333 34.998 M249.167 52.167 L 249.167 69.167 252.250 69.167 L 255.333 69.167 255.333 52.167 L 255.333 35.167 252.250 35.167 L 249.167 35.167 249.167 52.167 M381.951 40.913 C 388.547 43.005,391.640 51.033,388.462 57.812 C 384.585 66.083,372.186 66.162,368.260 57.940 C 363.570 48.118,371.921 37.732,381.951 40.913 M8.021 42.375 C 7.932 42.673,7.554 43.788,7.181 44.852 C -4.916 79.362,19.864 117.249,56.279 119.921 L 57.808 120.033 57.974 119.475 C 58.065 119.168,58.380 118.242,58.675 117.417 C 71.113 82.620,46.476 44.891,9.383 41.928 L 8.183 41.832 8.021 42.375 M17.667 48.504 C 20.750 49.312,23.515 50.275,26.102 51.441 L 26.786 51.750 26.168 54.250 C 25.827 55.625,25.264 57.931,24.916 59.375 C 24.184 62.414,24.275 62.326,23.357 60.875 C 21.812 58.435,18.794 53.657,17.718 51.949 C 17.094 50.958,16.304 49.721,15.963 49.199 C 15.027 47.766,14.958 47.795,17.667 48.504 M13.583 55.087 C 14.133 55.961,14.885 57.143,15.254 57.713 C 15.809 58.572,17.635 61.473,19.438 64.361 L 19.819 64.971 18.951 64.738 C 16.853 64.175,9.830 62.500,9.569 62.500 C 8.945 62.500,10.019 52.182,10.770 50.968 C 10.865 50.814,11.251 51.379,13.583 55.087 M346.167 56.351 L 346.167 58.701 345.562 59.853 C 342.660 65.374,332.290 66.541,329.582 61.650 C 328.607 59.889,328.952 57.137,330.306 55.878 C 331.934 54.364,333.747 54.056,341.208 54.022 L 346.167 54.000 346.167 56.351 M32.884 55.116 C 36.497 57.473,38.534 59.140,38.445 59.667 C 38.249 60.821,34.241 77.833,34.165 77.833 C 34.088 77.833,31.701 74.118,28.886 69.617 L 28.022 68.236 28.505 66.326 C 28.913 64.710,30.121 59.772,31.113 55.667 C 31.503 54.050,31.332 54.104,32.884 55.116 M92.083 62.597 C 86.745 62.899,78.932 64.844,73.417 67.245 C 70.254 68.621,64.397 71.849,64.534 72.141 C 64.562 72.201,64.871 72.850,65.221 73.583 C 72.115 88.054,72.312 102.814,65.815 118.157 C 65.371 119.206,65.032 120.087,65.061 120.116 C 65.115 120.170,68.376 119.699,71.167 119.233 C 83.287 117.211,95.677 110.276,103.756 100.991 C 105.086 99.463,105.282 99.220,106.509 97.583 C 112.610 89.447,116.274 80.333,117.585 70.037 C 117.981 66.922,117.966 66.851,116.772 66.390 C 109.264 63.490,100.389 62.126,92.083 62.597 M44.438 65.250 C 45.724 66.751,46.694 68.042,47.971 69.950 L 48.997 71.483 48.573 73.283 C 48.340 74.273,47.928 76.002,47.658 77.125 C 47.201 79.025,46.740 80.946,45.748 85.083 C 45.163 87.524,44.013 92.355,43.909 92.809 C 43.802 93.271,44.015 93.571,40.667 88.250 C 39.455 86.325,38.374 84.607,38.264 84.433 C 38.054 84.099,38.906 80.170,41.917 67.583 C 42.137 66.667,42.441 65.364,42.593 64.689 C 42.909 63.284,42.699 63.220,44.438 65.250 M98.602 67.927 C 98.547 68.070,98.390 68.673,98.252 69.266 C 95.722 80.175,87.750 90.897,77.421 97.283 L 75.750 98.316 75.646 95.033 C 75.588 93.227,75.450 90.938,75.338 89.947 C 75.226 88.955,75.169 88.109,75.210 88.067 C 75.252 88.026,75.740 87.675,76.294 87.287 C 81.805 83.437,86.608 76.919,88.998 70.051 L 89.705 68.019 90.561 67.925 C 93.578 67.592,98.730 67.593,98.602 67.927 M14.067 68.821 C 16.276 69.364,19.369 70.122,20.941 70.505 L 23.798 71.202 25.524 73.938 C 26.473 75.442,27.363 76.857,27.500 77.082 C 27.637 77.307,28.184 78.178,28.714 79.018 C 29.244 79.858,29.650 80.572,29.617 80.605 C 29.555 80.667,28.974 80.548,23.417 79.332 C 21.675 78.951,19.237 78.424,18.000 78.160 C 16.762 77.896,15.037 77.524,14.167 77.333 C 13.296 77.141,12.261 76.922,11.867 76.846 C 11.473 76.769,11.126 76.679,11.094 76.645 C 10.850 76.380,9.836 71.180,9.569 68.824 C 9.429 67.587,9.052 67.588,14.067 68.821 M106.250 68.669 C 110.282 69.477,112.333 70.118,112.333 70.567 C 112.331 71.521,111.518 75.154,110.632 78.163 C 107.846 87.628,101.411 97.371,94.167 103.094 C 93.479 103.638,92.879 104.123,92.833 104.174 C 92.219 104.850,86.798 108.262,84.500 109.418 C 80.096 111.634,72.662 114.126,73.128 113.230 C 73.448 112.614,74.656 107.510,74.918 105.667 C 75.099 104.391,75.131 104.354,76.827 103.503 C 89.974 96.906,100.328 83.708,103.506 69.500 C 103.816 68.110,103.677 68.153,106.250 68.669 M83.833 69.229 C 83.833 69.354,82.967 71.272,82.470 72.250 C 80.743 75.644,78.124 79.039,75.400 81.415 C 73.942 82.687,74.009 82.707,73.512 80.833 C 73.214 79.711,72.363 77.261,71.217 74.228 C 71.079 73.863,76.637 71.335,79.917 70.271 C 82.855 69.319,83.833 69.058,83.833 69.229 M53.218 80.083 C 54.626 83.697,55.535 87.161,56.281 91.750 C 56.710 94.394,56.711 102.935,56.282 105.583 C 55.853 108.225,55.334 110.729,55.183 110.882 C 55.112 110.954,54.428 110.017,53.663 108.799 C 52.899 107.580,51.960 106.096,51.577 105.500 C 51.193 104.904,50.149 103.263,49.257 101.852 L 47.633 99.287 48.064 97.519 C 48.300 96.546,48.762 94.625,49.090 93.250 C 50.318 88.096,50.538 87.177,51.247 84.250 C 51.646 82.600,52.108 80.636,52.274 79.885 C 52.440 79.134,52.589 78.534,52.605 78.552 C 52.621 78.569,52.897 79.258,53.218 80.083 M15.167 82.827 C 17.062 83.226,19.993 83.856,22.167 84.330 C 24.572 84.855,26.006 85.163,26.833 85.332 C 31.296 86.243,33.599 86.838,33.831 87.139 C 33.970 87.320,34.593 88.281,35.217 89.276 C 35.840 90.270,37.061 92.201,37.930 93.566 C 38.800 94.932,39.557 96.124,39.613 96.215 C 39.679 96.322,39.542 96.337,39.233 96.259 C 38.796 96.147,36.337 95.625,33.000 94.935 C 32.313 94.793,31.037 94.521,30.167 94.332 C 29.296 94.142,28.058 93.882,27.417 93.754 C 26.775 93.627,25.162 93.291,23.833 93.008 C 22.504 92.725,20.667 92.337,19.750 92.146 C 18.833 91.956,17.997 91.729,17.892 91.643 C 17.370 91.218,14.659 86.284,13.606 83.846 C 12.901 82.211,12.917 82.285,13.292 82.402 C 13.452 82.452,14.296 82.643,15.167 82.827 M26.083 98.742 C 26.817 98.896,28.467 99.241,29.750 99.507 C 31.033 99.773,32.796 100.145,33.667 100.334 C 34.537 100.522,36.150 100.859,37.250 101.082 C 38.350 101.304,39.962 101.643,40.833 101.833 C 41.704 102.024,42.668 102.235,42.975 102.301 C 43.555 102.426,43.828 102.820,48.253 109.917 C 48.768 110.742,49.553 111.987,49.997 112.684 L 50.806 113.952 50.111 113.822 C 41.579 112.223,31.912 107.023,25.176 100.408 L 22.767 98.043 23.758 98.252 C 24.304 98.366,25.350 98.587,26.083 98.742 " stroke="none" fill="#242424" fill-rule="evenodd"></path></g></svg>