<svg id="svg" version="1.1" xmlns="http://www.w3.org/2000/svg" xmlns:xlink="http://www.w3.org/1999/xlink" width="400" height="125.85" viewBox="0, 0, 400,125.85"><g id="svgg"><path id="path0" d="M56.750 5.856 C 46.997 6.614,37.357 9.909,29.083 15.312 C 26.898 16.740,20.729 21.449,20.621 21.772 C 20.600 21.835,21.858 22.135,23.417 22.439 C 37.299 25.143,46.997 29.504,57.079 37.577 C 59.702 39.677,64.945 44.943,65.423 45.957 C 65.433 45.979,66.374 45.596,67.513 45.105 C 80.950 39.313,97.812 38.525,111.826 43.033 C 112.976 43.403,114.340 43.837,114.858 43.999 L 115.799 44.292 115.557 43.712 C 115.423 43.393,115.246 43.008,115.162 42.857 C 115.078 42.707,114.305 41.158,113.444 39.417 C 102.244 16.762,80.678 3.996,56.750 5.856 M68.000 11.316 C 74.801 12.331,80.693 14.263,85.931 17.197 C 86.932 17.757,87.900 18.299,88.083 18.401 C 92.625 20.919,98.868 26.563,102.758 31.666 C 103.677 32.872,105.832 36.057,105.770 36.119 C 105.748 36.141,105.022 36.049,104.157 35.915 C 98.685 35.067,89.719 34.774,85.250 35.298 C 78.572 36.082,72.268 37.557,67.888 39.362 L 67.027 39.717 65.382 38.067 C 63.616 36.294,61.926 34.764,60.483 33.632 C 59.988 33.243,59.546 32.886,59.500 32.837 C 58.065 31.332,50.979 26.838,46.485 24.583 C 42.297 22.482,34.203 19.353,32.888 19.327 C 32.592 19.322,33.391 18.503,33.695 18.501 C 33.756 18.500,34.393 18.151,35.111 17.724 C 44.316 12.253,57.310 9.721,68.000 11.316 M250.776 20.938 C 249.127 21.444,247.821 23.491,248.051 25.208 C 248.581 29.155,254.171 30.125,255.991 26.585 C 257.710 23.240,254.522 19.787,250.776 20.938 M389.667 30.881 L 389.667 40.095 388.458 38.912 C 383.840 34.390,374.644 33.520,369.016 37.073 C 368.644 37.308,368.296 37.500,368.243 37.500 C 368.124 37.500,366.883 38.442,366.126 39.107 C 360.031 44.458,358.906 55.221,363.683 62.473 C 368.962 70.487,381.950 72.004,388.625 65.387 L 390.000 64.024 390.000 66.595 L 390.000 69.167 392.917 69.167 L 395.833 69.167 395.833 45.417 L 395.833 21.667 392.750 21.667 L 389.667 21.667 389.667 30.881 M149.010 24.724 C 148.877 25.073,147.797 27.473,146.746 29.750 C 146.535 30.208,145.974 31.446,145.500 32.500 C 145.026 33.554,144.465 34.792,144.254 35.250 C 144.043 35.708,143.177 37.621,142.330 39.500 C 141.483 41.379,140.500 43.543,140.145 44.308 C 139.790 45.074,139.500 45.722,139.500 45.750 C 139.500 45.778,139.210 46.426,138.855 47.192 C 138.500 47.957,137.517 50.121,136.670 52.000 C 135.823 53.879,134.957 55.792,134.746 56.250 C 134.535 56.708,133.974 57.946,133.500 59.000 C 133.026 60.054,132.465 61.292,132.254 61.750 C 130.810 64.888,129.000 68.946,129.000 69.047 C 129.000 69.113,130.492 69.167,132.315 69.167 L 135.630 69.167 135.889 68.522 C 136.031 68.167,136.370 67.398,136.643 66.813 C 136.916 66.228,137.812 64.212,138.633 62.333 C 139.454 60.454,140.222 58.710,140.340 58.458 L 140.554 58.000 152.406 58.000 L 164.259 58.000 165.161 60.125 C 165.657 61.294,166.339 62.850,166.677 63.583 C 167.015 64.317,167.688 65.842,168.172 66.973 C 169.221 69.425,168.714 69.184,172.691 69.129 L 175.956 69.083 175.186 67.400 C 174.763 66.474,174.216 65.274,173.972 64.733 C 172.665 61.846,171.594 59.490,171.253 58.750 C 171.042 58.292,170.480 57.054,170.004 56.000 C 169.527 54.946,168.965 53.708,168.754 53.250 C 168.542 52.792,167.980 51.554,167.505 50.500 C 167.029 49.446,166.501 48.283,166.331 47.917 C 166.161 47.550,164.135 43.087,161.828 38.000 C 157.553 28.569,157.140 27.660,156.170 25.542 L 155.617 24.333 152.388 24.333 L 149.158 24.333 149.010 24.724 M299.833 31.500 L 299.833 35.167 297.000 35.167 L 294.167 35.167 294.167 37.750 L 294.167 40.333 296.988 40.333 L 299.809 40.333 299.875 50.875 C 299.947 62.554,299.908 62.122,301.104 64.592 C 303.372 69.281,311.398 71.083,316.730 68.101 C 318.391 67.172,318.405 67.656,316.605 63.611 L 316.173 62.639 315.711 62.964 C 312.493 65.225,308.109 64.514,306.684 61.500 L 306.250 60.583 306.203 50.458 L 306.157 40.333 310.995 40.333 L 315.833 40.333 315.833 37.750 L 315.833 35.167 311.000 35.167 L 306.167 35.167 306.167 31.500 L 306.167 27.833 303.000 27.833 L 299.833 27.833 299.833 31.500 M16.101 29.990 C 15.039 31.335,13.696 33.229,13.569 33.560 C 13.495 33.754,13.682 33.828,14.446 33.908 C 25.310 35.043,36.682 39.481,43.731 45.334 C 43.925 45.495,44.608 46.062,45.250 46.595 C 51.294 51.608,55.780 57.231,59.401 64.333 C 59.939 65.387,60.394 66.269,60.412 66.292 C 60.431 66.316,61.227 65.759,62.181 65.055 C 77.783 53.544,96.330 50.714,114.750 57.034 C 115.575 57.317,116.391 57.620,116.564 57.709 C 116.838 57.848,116.866 57.818,116.783 57.476 C 116.731 57.260,116.605 56.483,116.504 55.750 C 116.403 55.017,116.192 53.824,116.035 53.100 L 115.750 51.783 114.833 51.475 C 104.655 48.062,91.994 47.581,81.167 50.195 C 75.384 51.591,69.386 54.066,64.171 57.208 C 63.119 57.842,62.235 58.289,62.207 58.203 C 62.044 57.714,58.723 52.957,57.362 51.261 C 48.239 39.899,34.853 31.967,20.521 29.430 C 16.757 28.764,17.103 28.720,16.101 29.990 M154.033 34.833 C 154.405 35.704,154.934 36.904,155.209 37.500 C 155.483 38.096,156.177 39.671,156.750 41.000 C 157.323 42.329,158.000 43.867,158.254 44.417 C 158.507 44.967,159.071 46.242,159.507 47.250 C 159.942 48.258,160.678 49.927,161.141 50.958 L 161.984 52.833 152.413 52.833 L 142.842 52.833 142.988 52.458 C 143.202 51.913,144.224 49.552,144.667 48.583 C 145.055 47.732,147.320 42.580,148.952 38.833 C 149.451 37.688,150.085 36.262,150.360 35.667 C 150.636 35.071,151.164 33.871,151.533 33.000 C 151.902 32.129,152.245 31.350,152.294 31.267 C 152.386 31.114,152.854 32.074,154.033 34.833 M197.167 35.000 C 193.623 35.383,190.859 36.641,188.668 38.867 L 187.500 40.053 187.500 37.610 L 187.500 35.167 184.500 35.167 L 181.500 35.167 181.500 52.167 L 181.500 69.167 184.657 69.167 L 187.814 69.167 187.877 59.042 C 187.951 47.107,187.989 46.854,190.091 43.990 C 193.139 39.838,200.982 39.234,204.276 42.897 C 206.498 45.369,206.552 45.725,206.625 58.458 L 206.687 69.167 209.747 69.167 L 212.808 69.167 212.879 59.208 C 212.941 50.393,212.983 49.116,213.244 48.083 C 215.561 38.898,228.227 37.481,231.128 46.083 L 231.578 47.417 231.631 58.292 L 231.684 69.167 234.853 69.167 L 238.021 69.167 237.950 58.042 C 237.866 44.990,237.777 44.232,235.935 40.938 C 231.777 33.503,219.138 32.701,212.387 39.444 L 210.858 40.972 210.572 40.368 C 208.900 36.845,202.778 34.394,197.167 35.000 M275.583 34.999 C 274.080 35.130,272.063 35.514,271.316 35.810 C 271.096 35.898,270.504 36.134,270.000 36.337 C 266.081 37.910,263.833 41.128,263.833 45.167 C 263.833 51.063,267.342 53.640,277.333 55.085 C 282.952 55.897,285.083 57.180,285.083 59.751 C 285.083 64.984,273.439 65.772,265.943 61.047 C 265.590 60.824,265.277 60.668,265.246 60.699 C 265.159 60.786,262.667 65.505,262.667 65.583 C 262.667 65.621,263.181 65.957,263.810 66.331 C 271.484 70.890,284.584 70.458,289.066 65.498 C 292.274 61.947,292.197 56.251,288.902 53.387 C 286.871 51.621,284.664 50.883,277.530 49.584 C 271.570 48.498,269.760 47.228,270.038 44.328 C 270.461 39.925,279.842 38.765,286.546 42.286 C 287.168 42.613,287.704 42.850,287.739 42.815 C 287.841 42.711,290.136 38.443,290.248 38.150 C 290.326 37.946,290.049 37.737,289.068 37.259 C 285.445 35.492,280.132 34.601,275.583 34.999 M335.417 34.995 C 331.232 35.350,327.397 36.638,324.650 38.611 C 323.677 39.310,323.632 39.033,325.183 41.863 L 326.352 43.996 327.218 43.343 C 331.331 40.240,339.394 39.344,342.786 41.613 C 344.928 43.044,345.915 44.898,346.109 47.849 L 346.214 49.464 339.982 49.544 C 328.718 49.690,325.107 51.147,323.324 56.263 C 320.817 63.461,326.227 69.380,335.333 69.400 C 340.680 69.411,343.922 68.171,346.134 65.269 L 346.500 64.788 346.500 66.978 L 346.500 69.167 349.417 69.167 L 352.333 69.167 352.333 57.875 C 352.332 48.367,352.291 46.346,352.071 45.083 C 350.801 37.802,344.847 34.195,335.417 34.995 M249.167 52.167 L 249.167 69.167 252.250 69.167 L 255.333 69.167 255.333 52.167 L 255.333 35.167 252.250 35.167 L 249.167 35.167 249.167 52.167 M381.668 40.809 C 390.820 43.434,392.715 57.261,384.612 62.292 C 376.369 67.410,366.478 61.291,367.053 51.428 C 367.407 45.346,370.901 41.483,377.000 40.428 C 377.848 40.282,380.617 40.508,381.668 40.809 M7.864 42.789 C 1.895 59.232,3.356 78.301,11.583 91.333 C 11.813 91.696,12.000 92.038,12.000 92.092 C 12.000 92.269,14.525 96.051,15.554 97.417 C 25.328 110.376,40.484 118.754,56.262 119.919 L 57.774 120.031 58.316 118.474 C 70.958 82.152,47.365 45.295,9.315 41.926 L 8.213 41.829 7.864 42.789 M17.917 48.574 C 20.410 49.233,22.892 50.076,25.185 51.041 L 26.787 51.715 26.641 52.232 C 26.455 52.892,24.563 60.737,24.417 61.458 C 24.257 62.244,24.121 62.152,23.169 60.625 C 22.697 59.869,21.835 58.500,21.253 57.583 C 20.670 56.667,19.912 55.467,19.569 54.917 C 19.225 54.367,18.166 52.696,17.215 51.204 C 14.826 47.456,14.752 47.737,17.917 48.574 M11.583 51.923 C 11.950 52.518,13.487 54.954,15.000 57.337 C 16.512 59.720,17.862 61.853,18.000 62.077 C 18.137 62.302,18.601 63.044,19.029 63.727 L 19.808 64.968 18.946 64.736 C 16.961 64.204,9.806 62.500,9.554 62.500 C 9.006 62.500,9.522 56.424,10.428 52.208 C 10.782 50.562,10.749 50.571,11.583 51.923 M346.167 56.358 C 346.167 61.689,342.190 64.867,335.833 64.616 C 331.319 64.438,329.086 62.662,329.086 59.250 C 329.086 55.007,331.263 54.068,341.208 54.023 L 346.167 54.000 346.167 56.358 M33.317 55.414 C 34.638 56.282,37.716 58.561,38.390 59.170 C 38.467 59.240,37.800 62.436,36.909 66.273 C 36.017 70.110,35.071 74.188,34.805 75.333 C 34.170 78.072,34.213 77.973,33.869 77.487 C 33.604 77.113,30.971 72.963,28.907 69.667 L 28.020 68.250 29.247 63.250 C 29.922 60.500,30.684 57.369,30.940 56.292 C 31.488 53.986,31.268 54.067,33.317 55.414 M92.000 62.599 C 90.930 62.656,90.431 62.722,87.000 63.260 C 81.652 64.099,76.131 65.859,71.083 68.334 C 69.020 69.347,64.500 71.911,64.500 72.070 C 64.500 72.103,64.791 72.719,65.146 73.440 C 72.062 87.463,72.326 102.308,65.936 117.826 C 64.865 120.427,64.842 120.229,66.189 120.014 C 66.772 119.921,68.037 119.726,69.000 119.579 C 82.980 117.451,94.590 111.243,103.751 100.997 C 105.604 98.925,107.190 96.781,109.555 93.154 C 113.619 86.920,116.685 77.914,117.649 69.375 L 117.937 66.834 117.010 66.481 C 109.018 63.438,100.644 62.138,92.000 62.599 M44.685 65.583 C 46.236 67.462,47.060 68.566,48.139 70.212 L 48.988 71.507 48.237 74.628 C 46.893 80.220,46.262 82.853,45.173 87.417 C 44.801 88.975,44.335 90.912,44.137 91.721 L 43.776 93.192 43.217 92.304 C 42.910 91.816,42.371 90.967,42.021 90.417 C 38.807 85.373,38.103 84.217,38.112 84.000 C 38.123 83.767,42.578 64.432,42.768 63.795 C 42.878 63.426,42.987 63.529,44.685 65.583 M98.476 68.375 C 95.956 79.856,88.019 90.757,77.427 97.283 L 75.750 98.316 75.637 94.845 C 75.574 92.936,75.443 90.797,75.345 90.091 C 75.083 88.209,75.098 88.113,75.700 87.757 C 76.487 87.292,79.256 84.940,80.500 83.681 C 83.906 80.231,86.299 76.640,88.155 72.196 C 88.602 71.126,89.102 69.800,89.265 69.250 C 89.428 68.700,89.616 68.186,89.682 68.107 C 89.853 67.905,92.604 67.719,95.857 67.691 L 98.631 67.667 98.476 68.375 M14.711 68.985 C 17.299 69.619,20.405 70.376,21.612 70.668 L 23.807 71.199 24.745 72.725 C 25.261 73.564,25.993 74.737,26.372 75.333 C 29.088 79.600,29.673 80.549,29.618 80.604 C 29.584 80.638,28.887 80.521,28.070 80.345 C 25.536 79.798,18.015 78.173,16.000 77.738 C 14.946 77.510,13.558 77.208,12.917 77.068 C 12.275 76.928,11.588 76.780,11.389 76.740 C 10.654 76.592,9.045 67.833,9.753 67.833 C 9.892 67.833,12.123 68.352,14.711 68.985 M106.333 68.673 C 112.256 69.922,112.440 70.026,112.113 71.928 C 108.978 90.176,96.551 105.215,79.250 111.697 C 77.671 112.289,74.499 113.264,73.649 113.419 L 73.049 113.528 73.606 111.587 C 74.125 109.784,74.922 106.062,75.035 104.922 C 75.077 104.490,75.241 104.346,76.318 103.796 C 87.635 98.014,96.103 88.923,100.968 77.333 C 102.034 74.794,103.308 70.754,103.582 69.042 C 103.720 68.184,103.902 68.160,106.333 68.673 M83.833 69.292 C 83.832 69.360,83.395 70.317,82.861 71.418 C 81.073 75.102,79.388 77.470,76.550 80.286 C 73.994 82.822,74.094 82.787,73.654 81.295 C 73.062 79.292,72.395 77.318,71.764 75.702 C 71.435 74.862,71.167 74.142,71.167 74.102 C 71.167 73.973,75.552 71.886,77.083 71.287 C 80.141 70.090,83.834 68.998,83.833 69.292 M53.057 79.667 C 56.694 88.865,57.626 99.358,55.663 109.023 C 55.178 111.413,55.248 111.382,54.187 109.680 C 53.140 108.000,49.750 102.618,48.475 100.609 L 47.645 99.302 48.158 97.109 C 48.441 95.903,48.923 93.867,49.230 92.583 C 49.537 91.300,50.021 89.275,50.305 88.083 C 50.589 86.892,51.166 84.492,51.587 82.750 C 52.008 81.008,52.396 79.337,52.449 79.037 C 52.502 78.736,52.564 78.511,52.587 78.537 C 52.610 78.562,52.821 79.071,53.057 79.667 M329.833 89.333 L 329.833 99.000 336.750 99.000 L 343.667 99.000 343.667 97.500 L 343.667 96.000 338.583 96.000 L 333.500 96.000 333.500 87.833 L 333.500 79.667 331.667 79.667 L 329.833 79.667 329.833 89.333 M346.500 89.333 L 346.500 99.000 348.250 99.000 L 350.000 99.000 350.000 89.333 L 350.000 79.667 348.250 79.667 L 346.500 79.667 346.500 89.333 M352.500 79.768 C 352.500 79.860,358.654 94.006,360.377 97.875 L 360.878 99.000 362.668 99.000 L 364.459 99.000 366.000 95.458 C 366.848 93.510,368.703 89.254,370.123 86.000 C 371.543 82.746,372.741 79.990,372.787 79.875 C 372.849 79.716,372.439 79.667,371.055 79.667 L 369.242 79.667 366.367 86.292 C 364.786 89.935,363.325 93.278,363.121 93.720 L 362.750 94.523 359.568 87.136 L 356.387 79.750 354.443 79.703 C 353.375 79.677,352.500 79.706,352.500 79.768 M374.833 89.333 L 374.833 99.000 382.167 99.000 L 389.500 99.000 389.500 97.500 L 389.500 96.000 384.000 96.000 L 378.500 96.000 378.500 93.333 L 378.500 90.667 383.167 90.667 L 387.833 90.667 387.833 89.167 L 387.833 87.667 383.167 87.667 L 378.500 87.667 378.500 85.167 L 378.500 82.667 383.750 82.667 L 389.000 82.667 389.000 81.167 L 389.000 79.667 381.917 79.667 L 374.833 79.667 374.833 89.333 M15.583 82.913 C 16.683 83.150,18.090 83.454,18.708 83.588 C 19.327 83.723,20.340 83.941,20.958 84.073 C 23.144 84.539,24.430 84.816,25.583 85.069 C 26.225 85.210,28.175 85.630,29.917 86.003 C 33.974 86.873,33.520 86.587,35.243 89.353 C 37.096 92.326,38.760 94.940,39.181 95.535 C 39.555 96.064,39.596 96.406,39.271 96.281 C 39.145 96.233,38.301 96.038,37.396 95.850 C 36.491 95.661,34.662 95.278,33.333 94.999 C 32.004 94.721,29.867 94.273,28.583 94.006 C 27.300 93.738,25.162 93.287,23.833 93.004 C 22.504 92.721,20.618 92.327,19.642 92.130 L 17.867 91.771 16.948 90.261 C 15.738 88.272,14.518 85.947,13.679 84.034 C 12.899 82.254,12.906 82.283,13.292 82.397 C 13.452 82.445,14.483 82.677,15.583 82.913 M27.750 99.098 C 28.850 99.330,30.275 99.625,30.917 99.753 C 31.558 99.882,32.796 100.143,33.667 100.333 C 34.537 100.524,36.150 100.862,37.250 101.085 C 38.350 101.308,39.962 101.647,40.833 101.838 C 41.704 102.030,42.661 102.229,42.959 102.282 C 43.423 102.363,43.628 102.580,44.376 103.781 C 44.856 104.553,45.362 105.365,45.500 105.585 C 45.776 106.027,46.438 107.074,49.038 111.183 L 50.788 113.948 50.102 113.820 C 41.098 112.132,29.273 105.481,23.604 98.915 L 22.863 98.057 24.307 98.366 C 25.101 98.536,26.650 98.865,27.750 99.098 " stroke="none" fill="#fcfcfc" fill-rule="evenodd"></path><path id="path1" d="M325.666 74.821 C 324.445 75.196,323.409 76.061,322.785 77.228 L 322.417 77.917 322.417 89.917 C 322.417 101.911,322.417 101.917,322.778 102.592 C 323.255 103.482,324.055 104.248,324.991 104.709 L 325.750 105.083 358.782 105.126 C 391.404 105.169,391.825 105.165,392.701 104.837 C 393.708 104.461,394.689 103.587,395.221 102.594 L 395.583 101.917 395.583 89.917 L 395.583 77.917 395.188 77.175 C 394.722 76.302,394.167 75.724,393.250 75.160 L 392.583 74.750 359.333 74.722 C 341.046 74.706,325.895 74.751,325.666 74.821 M333.500 87.833 L 333.500 96.000 338.583 96.000 L 343.667 96.000 343.667 97.500 L 343.667 99.000 336.750 99.000 L 329.833 99.000 329.833 89.333 L 329.833 79.667 331.667 79.667 L 333.500 79.667 333.500 87.833 M350.000 89.333 L 350.000 99.000 348.250 99.000 L 346.500 99.000 346.500 89.333 L 346.500 79.667 348.250 79.667 L 350.000 79.667 350.000 89.333 M359.568 87.136 L 362.750 94.523 363.121 93.720 C 363.325 93.278,364.786 89.935,366.367 86.292 L 369.242 79.667 371.055 79.667 C 372.439 79.667,372.849 79.716,372.787 79.875 C 372.741 79.990,371.543 82.746,370.123 86.000 C 368.703 89.254,366.848 93.510,366.000 95.458 L 364.459 99.000 362.668 99.000 L 360.878 99.000 360.377 97.875 C 358.654 94.006,352.500 79.860,352.500 79.768 C 352.500 79.706,353.375 79.677,354.443 79.703 L 356.387 79.750 359.568 87.136 M389.000 81.167 L 389.000 82.667 383.750 82.667 L 378.500 82.667 378.500 85.167 L 378.500 87.667 383.167 87.667 L 387.833 87.667 387.833 89.167 L 387.833 90.667 383.167 90.667 L 378.500 90.667 378.500 93.333 L 378.500 96.000 384.000 96.000 L 389.500 96.000 389.500 97.500 L 389.500 99.000 382.167 99.000 L 374.833 99.000 374.833 89.333 L 374.833 79.667 381.917 79.667 L 389.000 79.667 389.000 81.167 " stroke="none" fill="#b41c14" fill-rule="evenodd"></path></g></svg>